<group>
trigger=attack
ampeg_attack=0.100000
ampeg_release=0.100000

<region>
sample=Harmonica-Hohner-Special20-F/Sustains/Normal/Hohner-Special20-F_Normal_F3.wav
pitch_keycenter=65
lokey=65
hikey=67
volume=-1.934796

<region>
sample=Harmonica-Hohner-Special20-F/Sustains/Normal/Hohner-Special20-F_Normal_A3.wav
pitch_keycenter=69
lokey=68
hikey=70
volume=1.586160

<region>
sample=Harmonica-Hohner-Special20-F/Sustains/Normal/Hohner-Special20-F_Normal_C4.wav
pitch_keycenter=72
lokey=71
hikey=74
volume=0.920034

<region>
sample=Harmonica-Hohner-Special20-F/Sustains/Normal/Hohner-Special20-F_Normal_F4.wav
pitch_keycenter=77
lokey=75
hikey=79
tune=-1
volume=-1.478859

<region>
sample=Harmonica-Hohner-Special20-F/Sustains/Normal/Hohner-Special20-F_Normal_A4.wav
pitch_keycenter=81
lokey=80
hikey=82
volume=1.753415

<region>
sample=Harmonica-Hohner-Special20-F/Sustains/Normal/Hohner-Special20-F_Normal_C5.wav
pitch_keycenter=84
lokey=83
hikey=86
volume=4.824080

<region>
sample=Harmonica-Hohner-Special20-F/Sustains/Normal/Hohner-Special20-F_Normal_F5.wav
pitch_keycenter=89
lokey=87
hikey=92
volume=-0.562701

<region>
sample=Harmonica-Hohner-Special20-F/Sustains/Normal/Hohner-Special20-F_Normal_C6.wav
pitch_keycenter=96
lokey=93
hikey=97
tune=-1
volume=-4.107189

<group>
trigger=release
ampeg_attack=0.100000
ampeg_release=0.300000

<region>
sample=Harmonica-Hohner-Special20-F/Releases/Normal/Hohner-Special20-F_Normal_rel_F3.wav
pitch_keycenter=65
lokey=65
hikey=67
tune=-10
volume=6.337663

<region>
sample=Harmonica-Hohner-Special20-F/Releases/Normal/Hohner-Special20-F_Normal_rel_A3.wav
pitch_keycenter=69
lokey=68
hikey=70
tune=-1
volume=-6.490250

<region>
sample=Harmonica-Hohner-Special20-F/Releases/Normal/Hohner-Special20-F_Normal_rel_C4.wav
pitch_keycenter=72
lokey=71
hikey=74
tune=-3
volume=0.586998

<region>
sample=Harmonica-Hohner-Special20-F/Releases/Normal/Hohner-Special20-F_Normal_rel_F4.wav
pitch_keycenter=77
lokey=75
hikey=79
tune=-4
volume=7.320181

<region>
sample=Harmonica-Hohner-Special20-F/Releases/Normal/Hohner-Special20-F_Normal_rel_A4.wav
pitch_keycenter=81
lokey=80
hikey=82
tune=-1
volume=-0.954863

<region>
sample=Harmonica-Hohner-Special20-F/Releases/Normal/Hohner-Special20-F_Normal_rel_C5.wav
pitch_keycenter=84
lokey=83
hikey=86
tune=-4
volume=4.241851

<region>
sample=Harmonica-Hohner-Special20-F/Releases/Normal/Hohner-Special20-F_Normal_rel_F5.wav
pitch_keycenter=89
lokey=87
hikey=92
tune=-1
volume=0.845482

<region>
sample=Harmonica-Hohner-Special20-F/Releases/Normal/Hohner-Special20-F_Normal_rel_C6.wav
pitch_keycenter=96
lokey=93
hikey=97
volume=-4.367148

